<svg width="205" height="208" viewBox="0 0 205 208" fill="none" xmlns="http://www.w3.org/2000/svg">
<path d="M182.821 134.652C194.913 134.652 204.716 144.456 204.716 156.548V186.105C204.716 198.197 194.913 208 182.821 208C170.729 208 160.927 198.198 160.927 186.105V156.548C160.927 144.456 170.729 134.652 182.821 134.652ZM21.8945 68.9688C33.9867 68.9687 43.7891 78.7712 43.7891 90.8633V185.011C43.7889 197.103 33.9866 206.905 21.8945 206.905C9.80259 206.905 0.00011727 197.103 0 185.011V90.8633C-5.28559e-07 78.7712 9.80251 68.9689 21.8945 68.9688ZM133.558 122.61C145.65 122.61 155.453 132.413 155.453 144.505C155.453 156.597 145.65 166.4 133.558 166.4H132.463C120.371 166.4 110.568 156.597 110.568 144.505C110.569 132.413 120.371 122.611 132.463 122.61H133.558ZM182.821 0C194.913 0.000110282 204.716 9.80256 204.716 21.8945V107.284C204.716 119.376 194.913 129.179 182.821 129.179C170.729 129.179 160.927 119.376 160.927 107.284V21.8945C160.927 9.8025 170.729 5.28561e-07 182.821 0ZM100.716 83.2002C112.808 83.2002 122.61 93.0026 122.61 105.095C122.61 117.187 112.808 126.989 100.716 126.989H99.6211C87.529 126.989 77.7266 117.187 77.7266 105.095C77.7266 93.0026 87.529 83.2002 99.6211 83.2002H100.716ZM70.0635 42.6943C82.1555 42.6945 91.958 52.4978 91.958 64.5898C91.9578 76.6817 82.1553 86.4842 70.0635 86.4844H68.9688C56.8767 86.4844 47.0734 76.6818 47.0732 64.5898C47.0732 52.4977 56.8766 42.6943 68.9688 42.6943H70.0635ZM21.8945 4.37891C33.9866 4.37891 43.7889 14.1814 43.7891 26.2734V40.5049C43.7891 52.597 33.9867 62.4004 21.8945 62.4004C9.80251 62.4003 5.28561e-07 52.5969 0 40.5049V26.2734C0.000133478 14.1815 9.80259 4.37904 21.8945 4.37891Z" fill="#FF1B00"/>
</svg>
